<svg width="20" height="20" viewBox="0 0 20 20" fill="none" xmlns="http://www.w3.org/2000/svg">
<path d="M4.115 5.63129C3.265 5.63129 2.4025 5.96254 2.25875 6.14379C2.22125 6.21879 2.13375 6.82504 2.34 6.82504C2.40875 6.82504 2.44 6.83754 2.64 6.74379C3.39 6.45004 3.865 6.45629 3.93375 6.45629C4.7775 6.37504 5.265 6.95004 5.19 7.69379V8.13129C4.4775 7.96254 4.07125 7.95629 3.87125 7.95629C2.83375 7.89379 1.875 8.44129 1.875 9.64379C1.875 10.9625 3.05187 11.2438 3.50812 11.225C4.18937 11.2313 4.83937 10.925 5.27062 10.3938C5.61437 11.1625 5.83312 11.1125 5.83937 11.1125C5.90187 11.1125 5.95187 11.0875 6.00187 11.0563L6.35812 10.8063C6.42062 10.7688 6.47062 10.7063 6.47687 10.6313C6.47062 10.45 6.14562 10.1688 6.17062 9.53754V7.58754C6.19014 7.32175 6.15599 7.05474 6.0702 6.80241C5.98441 6.55009 5.84874 6.3176 5.67125 6.11879C5.23731 5.75701 4.67779 5.58174 4.115 5.63129ZM16.2231 5.63129C14.9731 5.63129 14.2544 6.41254 14.2731 7.20629C14.2731 8.29379 15.3731 8.63754 15.4981 8.67504C16.5544 9.00629 16.6981 9.01879 16.9919 9.26879C17.2419 9.52504 17.2106 10.025 16.8419 10.2438C16.7356 10.3063 16.2794 10.5813 15.2481 10.3688C14.9044 10.3 14.7231 10.2188 14.4419 10.1C14.3669 10.075 14.1919 10.0313 14.1919 10.2625V10.5688C14.1919 10.7125 14.2794 10.8438 14.4106 10.9063C15.0669 11.2375 15.8544 11.25 16.0231 11.25C16.0481 11.25 17.4856 11.2507 17.9669 10.2813C18.0656 10.0813 18.3231 9.35004 17.8419 8.72504C17.4419 8.25629 17.0981 8.20629 16.0731 7.89379C15.9856 7.86879 15.2294 7.67504 15.2356 7.14379C15.1981 6.46254 16.1231 6.42504 16.3169 6.43754C17.0981 6.42504 17.4856 6.71879 17.6981 6.73754C17.7919 6.73754 17.8356 6.68129 17.8356 6.55629V6.26879C17.8394 6.19969 17.8196 6.13135 17.7794 6.07504C17.5294 5.75004 16.5731 5.63129 16.2231 5.63129ZM6.73562 5.78754C6.66687 5.80004 6.61687 5.86879 6.62937 5.93754C6.64187 6.01879 6.65437 6.10004 6.68562 6.18129L8.08562 10.8C8.11687 10.95 8.21687 11.1125 8.43562 11.0875H8.94812C9.26062 11.1188 9.30437 10.8188 9.31062 10.7875L10.2294 6.93754L11.1606 10.7938C11.1669 10.825 11.2106 11.125 11.5169 11.0938H12.0356C12.2606 11.1188 12.3669 10.9563 12.3981 10.8063C13.9731 5.73754 13.8669 6.08129 13.8794 6.03129C13.9044 5.76879 13.7544 5.78754 13.7294 5.79379H13.1731C12.8919 5.76254 12.8356 6.01879 12.8231 6.08129L11.7856 10.0875L10.8481 6.08129C10.8044 5.77504 10.5544 5.78754 10.4919 5.79379H10.0106C9.73562 5.76879 9.66687 5.98754 9.64812 6.08129L8.71687 10.0313L7.71687 6.08129C7.69187 5.95629 7.61062 5.76254 7.36687 5.78754H6.73562ZM4.07687 8.68129C4.52687 8.68754 4.91562 8.75629 5.18437 8.81879C5.18437 9.13129 5.19562 9.30629 5.12687 9.58754C5.03937 9.88754 4.6525 10.4313 3.74 10.4438C3.215 10.4688 2.87125 10.0563 2.9025 9.58754C2.87125 8.83754 3.64625 8.65004 4.0775 8.68129H4.07687ZM18.1506 12.5013C17.5675 12.5094 16.8787 12.64 16.3562 13.0069C16.195 13.1188 16.2231 13.2738 16.4025 13.2532C16.99 13.1825 18.2975 13.0238 18.5312 13.3225C18.7656 13.6213 18.2725 14.8538 18.0544 15.405C17.9869 15.5694 18.1294 15.6375 18.28 15.5125C19.2575 14.6938 19.5112 12.9775 19.3112 12.7313C19.2112 12.6075 18.7337 12.4932 18.1506 12.5013ZM0.760622 13.1263C0.624372 13.145 0.565622 13.3175 0.708122 13.4544C3.15625 15.7507 6.39125 16.875 9.98312 16.875C12.545 16.875 15.5187 16.0394 17.5719 14.4644C17.9112 14.2019 17.6219 13.81 17.2744 13.9644C14.9725 14.9807 12.4719 15.47 10.1962 15.47C6.82375 15.47 3.55875 14.7657 0.918122 13.1663C0.871743 13.1353 0.816152 13.1212 0.760622 13.1263Z" fill="#6B7280"/>
</svg>
