<svg width="618" height="197" viewBox="0 0 618 197" fill="none" xmlns="http://www.w3.org/2000/svg">
<rect width="618" height="197" fill="white"/>
<rect x="36.5" y="72.5" width="152" height="78" rx="34.5" stroke="#241B49"/>
<path d="M120.312 117H118.343L121.928 106.818H124.205L127.794 117H125.825L123.106 108.906H123.026L120.312 117ZM120.376 113.008H125.746V114.489H120.376V113.008ZM133.923 113.788V109.364H135.722V117H133.977V115.643H133.898C133.726 116.07 133.442 116.42 133.048 116.692C132.657 116.964 132.174 117.099 131.601 117.099C131.101 117.099 130.658 116.988 130.274 116.766C129.892 116.541 129.594 116.214 129.379 115.787C129.163 115.356 129.056 114.836 129.056 114.226V109.364H130.855V113.947C130.855 114.431 130.988 114.816 131.253 115.101C131.518 115.386 131.866 115.528 132.297 115.528C132.562 115.528 132.819 115.464 133.068 115.335C133.316 115.205 133.52 115.013 133.679 114.758C133.842 114.499 133.923 114.176 133.923 113.788ZM141.386 109.364V110.756H136.996V109.364H141.386ZM138.08 107.534H139.88V114.703C139.88 114.945 139.916 115.131 139.989 115.26C140.066 115.386 140.165 115.472 140.288 115.518C140.41 115.565 140.546 115.588 140.695 115.588C140.808 115.588 140.911 115.58 141.004 115.563C141.1 115.547 141.173 115.532 141.222 115.518L141.526 116.925C141.429 116.959 141.292 116.995 141.113 117.035C140.937 117.075 140.722 117.098 140.467 117.104C140.016 117.118 139.61 117.05 139.249 116.901C138.887 116.748 138.601 116.513 138.388 116.195C138.18 115.876 138.077 115.479 138.08 115.001V107.534ZM144.855 112.526V117H143.056V106.818H144.816V110.661H144.905C145.084 110.23 145.361 109.891 145.735 109.642C146.113 109.39 146.594 109.264 147.177 109.264C147.707 109.264 148.17 109.375 148.564 109.597C148.959 109.819 149.263 110.144 149.479 110.572C149.698 110.999 149.807 111.521 149.807 112.138V117H148.007V112.416C148.007 111.902 147.875 111.503 147.61 111.218C147.348 110.93 146.98 110.786 146.506 110.786C146.188 110.786 145.903 110.855 145.651 110.994C145.402 111.13 145.207 111.327 145.064 111.586C144.925 111.844 144.855 112.158 144.855 112.526ZM154.972 117.149C154.227 117.149 153.58 116.985 153.034 116.657C152.487 116.329 152.062 115.87 151.761 115.28C151.463 114.69 151.313 114 151.313 113.212C151.313 112.423 151.463 111.732 151.761 111.138C152.062 110.545 152.487 110.085 153.034 109.756C153.58 109.428 154.227 109.264 154.972 109.264C155.718 109.264 156.365 109.428 156.911 109.756C157.458 110.085 157.881 110.545 158.179 111.138C158.481 111.732 158.632 112.423 158.632 113.212C158.632 114 158.481 114.69 158.179 115.28C157.881 115.87 157.458 116.329 156.911 116.657C156.365 116.985 155.718 117.149 154.972 117.149ZM154.982 115.707C155.387 115.707 155.725 115.596 155.997 115.374C156.268 115.149 156.471 114.847 156.603 114.469C156.739 114.092 156.807 113.671 156.807 113.207C156.807 112.739 156.739 112.317 156.603 111.939C156.471 111.558 156.268 111.254 155.997 111.029C155.725 110.804 155.387 110.691 154.982 110.691C154.568 110.691 154.223 110.804 153.948 111.029C153.677 111.254 153.473 111.558 153.337 111.939C153.204 112.317 153.138 112.739 153.138 113.207C153.138 113.671 153.204 114.092 153.337 114.469C153.473 114.847 153.677 115.149 153.948 115.374C154.223 115.596 154.568 115.707 154.982 115.707ZM160.159 117V109.364H161.904V110.636H161.984C162.123 110.196 162.362 109.856 162.7 109.617C163.041 109.375 163.43 109.254 163.868 109.254C163.967 109.254 164.078 109.259 164.201 109.269C164.327 109.276 164.431 109.287 164.514 109.304V110.96C164.438 110.933 164.317 110.91 164.151 110.89C163.989 110.867 163.831 110.855 163.679 110.855C163.351 110.855 163.056 110.926 162.794 111.069C162.536 111.208 162.332 111.402 162.183 111.651C162.033 111.899 161.959 112.186 161.959 112.511V117H160.159Z" fill="black"/>
<circle cx="81" cy="111" r="25" fill="#241B49"/>
<path d="M85.6875 103.5C85.6875 104.743 85.1936 105.935 84.3146 106.815C83.4355 107.694 82.2432 108.187 81 108.187C79.7568 108.187 78.5645 107.694 77.6854 106.815C76.8064 105.935 76.3125 104.743 76.3125 103.5C76.3125 102.257 76.8064 101.065 77.6854 100.185C78.5645 99.3064 79.7568 98.8125 81 98.8125C82.2432 98.8125 83.4355 99.3064 84.3146 100.185C85.1936 101.065 85.6875 102.257 85.6875 103.5V103.5ZM71.6263 121.147C71.6664 118.688 72.6717 116.343 74.4252 114.618C76.1788 112.892 78.5401 111.926 81 111.926C83.4599 111.926 85.8212 112.892 87.5748 114.618C89.3283 116.343 90.3336 118.688 90.3738 121.147C87.433 122.496 84.2352 123.192 81 123.187C77.655 123.187 74.48 122.457 71.6263 121.147Z" stroke="white" stroke-width="1.5" stroke-linecap="round" stroke-linejoin="round"/>
<rect x="359.5" y="72.5" width="216" height="78" rx="34.5" stroke="#241B49"/>
<path d="M443.538 109.617C443.491 109.183 443.296 108.845 442.951 108.603C442.61 108.361 442.165 108.24 441.619 108.24C441.234 108.24 440.904 108.298 440.629 108.414C440.354 108.53 440.144 108.687 439.998 108.886C439.852 109.085 439.777 109.312 439.774 109.567C439.774 109.78 439.822 109.964 439.918 110.119C440.018 110.275 440.152 110.408 440.321 110.517C440.49 110.623 440.677 110.713 440.883 110.786C441.088 110.858 441.295 110.92 441.504 110.969L442.459 111.208C442.843 111.298 443.213 111.419 443.567 111.571C443.925 111.723 444.245 111.916 444.527 112.148C444.812 112.38 445.037 112.66 445.203 112.988C445.369 113.316 445.452 113.701 445.452 114.141C445.452 114.738 445.299 115.263 444.994 115.717C444.689 116.168 444.249 116.521 443.672 116.776C443.098 117.028 442.404 117.154 441.589 117.154C440.797 117.154 440.109 117.031 439.526 116.786C438.946 116.541 438.491 116.183 438.163 115.712C437.839 115.242 437.663 114.668 437.636 113.992H439.451C439.478 114.347 439.587 114.642 439.779 114.877C439.971 115.112 440.222 115.288 440.53 115.404C440.841 115.52 441.189 115.578 441.574 115.578C441.975 115.578 442.326 115.518 442.628 115.399C442.933 115.277 443.171 115.107 443.344 114.892C443.516 114.673 443.604 114.418 443.607 114.126C443.604 113.861 443.526 113.643 443.374 113.47C443.221 113.295 443.007 113.149 442.732 113.033C442.46 112.913 442.142 112.807 441.778 112.714L440.619 112.416C439.781 112.201 439.118 111.874 438.631 111.437C438.147 110.996 437.905 110.411 437.905 109.682C437.905 109.082 438.067 108.557 438.392 108.106C438.72 107.655 439.166 107.305 439.729 107.057C440.293 106.805 440.931 106.679 441.643 106.679C442.366 106.679 442.999 106.805 443.543 107.057C444.089 107.305 444.519 107.652 444.83 108.096C445.142 108.537 445.303 109.044 445.312 109.617H443.538ZM450.83 109.364V110.756H446.44V109.364H450.83ZM447.524 107.534H449.323V114.703C449.323 114.945 449.36 115.131 449.433 115.26C449.509 115.386 449.608 115.472 449.731 115.518C449.854 115.565 449.99 115.588 450.139 115.588C450.251 115.588 450.354 115.58 450.447 115.563C450.543 115.547 450.616 115.532 450.666 115.518L450.969 116.925C450.873 116.959 450.735 116.995 450.556 117.035C450.381 117.075 450.165 117.098 449.91 117.104C449.459 117.118 449.053 117.05 448.692 116.901C448.331 116.748 448.044 116.513 447.832 116.195C447.623 115.876 447.52 115.479 447.524 115.001V107.534ZM454.532 117.154C454.048 117.154 453.613 117.068 453.225 116.896C452.84 116.72 452.535 116.461 452.31 116.12C452.088 115.779 451.977 115.358 451.977 114.857C451.977 114.426 452.056 114.07 452.216 113.788C452.375 113.507 452.592 113.281 452.867 113.112C453.142 112.943 453.452 112.816 453.797 112.729C454.145 112.64 454.504 112.575 454.875 112.536C455.323 112.489 455.686 112.448 455.964 112.411C456.243 112.371 456.445 112.312 456.571 112.232C456.7 112.149 456.765 112.022 456.765 111.849V111.82C456.765 111.445 456.654 111.155 456.431 110.95C456.209 110.744 455.89 110.641 455.472 110.641C455.031 110.641 454.681 110.737 454.423 110.93C454.168 111.122 453.995 111.349 453.906 111.611L452.225 111.372C452.358 110.908 452.577 110.52 452.882 110.209C453.187 109.894 453.56 109.659 454 109.503C454.441 109.344 454.928 109.264 455.462 109.264C455.83 109.264 456.196 109.307 456.561 109.393C456.925 109.48 457.258 109.622 457.56 109.821C457.862 110.017 458.104 110.283 458.286 110.621C458.471 110.96 458.564 111.382 458.564 111.889V117H456.834V115.951H456.775C456.665 116.163 456.511 116.362 456.312 116.548C456.117 116.73 455.87 116.877 455.571 116.99C455.276 117.099 454.93 117.154 454.532 117.154ZM455 115.832C455.361 115.832 455.674 115.76 455.939 115.618C456.204 115.472 456.408 115.28 456.551 115.041C456.697 114.803 456.77 114.542 456.77 114.261V113.361C456.713 113.407 456.617 113.45 456.481 113.49C456.349 113.53 456.199 113.565 456.034 113.594C455.868 113.624 455.704 113.651 455.542 113.674C455.379 113.697 455.238 113.717 455.119 113.734C454.85 113.77 454.61 113.83 454.398 113.913C454.186 113.996 454.019 114.112 453.896 114.261C453.773 114.406 453.712 114.595 453.712 114.827C453.712 115.159 453.833 115.409 454.075 115.578C454.317 115.747 454.625 115.832 455 115.832ZM463.705 117.149C462.943 117.149 462.288 116.982 461.741 116.647C461.198 116.312 460.778 115.85 460.483 115.26C460.192 114.667 460.046 113.984 460.046 113.212C460.046 112.436 460.195 111.752 460.493 111.158C460.792 110.562 461.212 110.098 461.756 109.766C462.303 109.432 462.949 109.264 463.695 109.264C464.315 109.264 464.863 109.379 465.341 109.607C465.821 109.833 466.204 110.152 466.489 110.567C466.774 110.978 466.936 111.458 466.976 112.009H465.256C465.186 111.641 465.021 111.334 464.759 111.089C464.5 110.84 464.154 110.716 463.72 110.716C463.352 110.716 463.029 110.815 462.75 111.014C462.472 111.21 462.255 111.491 462.099 111.859C461.947 112.227 461.87 112.668 461.87 113.182C461.87 113.702 461.947 114.15 462.099 114.524C462.252 114.895 462.465 115.182 462.74 115.384C463.019 115.583 463.345 115.683 463.72 115.683C463.985 115.683 464.222 115.633 464.431 115.533C464.643 115.431 464.82 115.283 464.963 115.091C465.105 114.899 465.203 114.665 465.256 114.39H466.976C466.933 114.93 466.774 115.409 466.499 115.827C466.224 116.241 465.849 116.566 465.375 116.801C464.901 117.033 464.345 117.149 463.705 117.149ZM470.095 114.604L470.09 112.431H470.378L473.122 109.364H475.225L471.85 113.122H471.477L470.095 114.604ZM468.454 117V106.818H470.254V117H468.454ZM473.247 117L470.761 113.525L471.974 112.257L475.399 117H473.247ZM482.46 111.382L480.82 111.561C480.773 111.395 480.692 111.24 480.576 111.094C480.463 110.948 480.311 110.83 480.119 110.741C479.926 110.651 479.691 110.607 479.413 110.607C479.038 110.607 478.723 110.688 478.468 110.85C478.216 111.013 478.092 111.223 478.095 111.482C478.092 111.704 478.173 111.884 478.339 112.023C478.508 112.163 478.786 112.277 479.174 112.366L480.477 112.645C481.199 112.801 481.736 113.048 482.087 113.386C482.442 113.724 482.621 114.166 482.624 114.713C482.621 115.194 482.48 115.618 482.202 115.986C481.927 116.35 481.544 116.635 481.053 116.841C480.563 117.046 479.999 117.149 479.363 117.149C478.428 117.149 477.676 116.954 477.106 116.562C476.536 116.168 476.196 115.62 476.087 114.917L477.842 114.748C477.921 115.093 478.09 115.353 478.349 115.528C478.607 115.704 478.944 115.792 479.358 115.792C479.786 115.792 480.129 115.704 480.387 115.528C480.649 115.353 480.78 115.136 480.78 114.877C480.78 114.658 480.695 114.478 480.526 114.335C480.361 114.193 480.102 114.083 479.751 114.007L478.448 113.734C477.716 113.581 477.174 113.324 476.822 112.963C476.471 112.598 476.297 112.138 476.3 111.581C476.297 111.11 476.425 110.703 476.683 110.358C476.945 110.01 477.308 109.741 477.772 109.553C478.239 109.36 478.778 109.264 479.388 109.264C480.283 109.264 480.987 109.455 481.501 109.836C482.018 110.217 482.338 110.732 482.46 111.382ZM491.737 106.341L488.456 118.531H486.88L490.161 106.341H491.737ZM501.971 109.617C501.925 109.183 501.729 108.845 501.385 108.603C501.043 108.361 500.599 108.24 500.052 108.24C499.668 108.24 499.338 108.298 499.063 108.414C498.788 108.53 498.577 108.687 498.431 108.886C498.286 109.085 498.211 109.312 498.208 109.567C498.208 109.78 498.256 109.964 498.352 110.119C498.451 110.275 498.586 110.408 498.755 110.517C498.924 110.623 499.111 110.713 499.316 110.786C499.522 110.858 499.729 110.92 499.938 110.969L500.892 111.208C501.277 111.298 501.646 111.419 502.001 111.571C502.359 111.723 502.679 111.916 502.961 112.148C503.246 112.38 503.471 112.66 503.637 112.988C503.802 113.316 503.885 113.701 503.885 114.141C503.885 114.738 503.733 115.263 503.428 115.717C503.123 116.168 502.682 116.521 502.105 116.776C501.532 117.028 500.838 117.154 500.022 117.154C499.23 117.154 498.542 117.031 497.959 116.786C497.379 116.541 496.925 116.183 496.597 115.712C496.272 115.242 496.096 114.668 496.07 113.992H497.885C497.911 114.347 498.02 114.642 498.213 114.877C498.405 115.112 498.655 115.288 498.963 115.404C499.275 115.52 499.623 115.578 500.007 115.578C500.408 115.578 500.76 115.518 501.061 115.399C501.366 115.277 501.605 115.107 501.777 114.892C501.95 114.673 502.038 114.418 502.041 114.126C502.038 113.861 501.96 113.643 501.807 113.47C501.655 113.295 501.441 113.149 501.166 113.033C500.894 112.913 500.576 112.807 500.211 112.714L499.053 112.416C498.214 112.201 497.551 111.874 497.064 111.437C496.58 110.996 496.338 110.411 496.338 109.682C496.338 109.082 496.501 108.557 496.826 108.106C497.154 107.655 497.6 107.305 498.163 107.057C498.726 106.805 499.364 106.679 500.077 106.679C500.8 106.679 501.433 106.805 501.976 107.057C502.523 107.305 502.952 107.652 503.264 108.096C503.575 108.537 503.736 109.044 503.746 109.617H501.971ZM507.648 117.154C507.164 117.154 506.728 117.068 506.34 116.896C505.956 116.72 505.651 116.461 505.425 116.12C505.203 115.779 505.092 115.358 505.092 114.857C505.092 114.426 505.172 114.07 505.331 113.788C505.49 113.507 505.707 113.281 505.982 113.112C506.257 112.943 506.567 112.816 506.912 112.729C507.26 112.64 507.619 112.575 507.991 112.536C508.438 112.489 508.801 112.448 509.079 112.411C509.358 112.371 509.56 112.312 509.686 112.232C509.815 112.149 509.88 112.022 509.88 111.849V111.82C509.88 111.445 509.769 111.155 509.547 110.95C509.325 110.744 509.005 110.641 508.587 110.641C508.146 110.641 507.797 110.737 507.538 110.93C507.283 111.122 507.111 111.349 507.021 111.611L505.341 111.372C505.473 110.908 505.692 110.52 505.997 110.209C506.302 109.894 506.675 109.659 507.116 109.503C507.556 109.344 508.044 109.264 508.577 109.264C508.945 109.264 509.311 109.307 509.676 109.393C510.041 109.48 510.374 109.622 510.675 109.821C510.977 110.017 511.219 110.283 511.401 110.621C511.587 110.96 511.68 111.382 511.68 111.889V117H509.949V115.951H509.89C509.78 116.163 509.626 116.362 509.427 116.548C509.232 116.73 508.985 116.877 508.687 116.99C508.392 117.099 508.045 117.154 507.648 117.154ZM508.115 115.832C508.476 115.832 508.789 115.76 509.055 115.618C509.32 115.472 509.523 115.28 509.666 115.041C509.812 114.803 509.885 114.542 509.885 114.261V113.361C509.828 113.407 509.732 113.45 509.596 113.49C509.464 113.53 509.315 113.565 509.149 113.594C508.983 113.624 508.819 113.651 508.657 113.674C508.494 113.697 508.354 113.717 508.234 113.734C507.966 113.77 507.725 113.83 507.513 113.913C507.301 113.996 507.134 114.112 507.011 114.261C506.889 114.406 506.827 114.595 506.827 114.827C506.827 115.159 506.948 115.409 507.19 115.578C507.432 115.747 507.74 115.832 508.115 115.832ZM513.489 117V109.364H515.209V110.661H515.299C515.458 110.224 515.721 109.882 516.089 109.637C516.457 109.388 516.896 109.264 517.407 109.264C517.924 109.264 518.36 109.39 518.714 109.642C519.072 109.891 519.324 110.23 519.47 110.661H519.55C519.719 110.237 520.004 109.899 520.405 109.647C520.809 109.392 521.288 109.264 521.841 109.264C522.544 109.264 523.117 109.486 523.562 109.93C524.006 110.375 524.228 111.022 524.228 111.874V117H522.423V112.153C522.423 111.679 522.297 111.332 522.045 111.114C521.793 110.892 521.485 110.781 521.121 110.781C520.686 110.781 520.347 110.916 520.101 111.188C519.859 111.457 519.738 111.806 519.738 112.237V117H517.974V112.078C517.974 111.684 517.854 111.369 517.616 111.134C517.38 110.898 517.072 110.781 516.691 110.781C516.432 110.781 516.197 110.847 515.985 110.979C515.773 111.109 515.604 111.293 515.478 111.531C515.352 111.767 515.289 112.042 515.289 112.357V117H513.489ZM526.054 119.864V109.364H527.824V110.626H527.928C528.021 110.441 528.152 110.244 528.321 110.035C528.49 109.823 528.718 109.642 529.007 109.493C529.295 109.34 529.663 109.264 530.11 109.264C530.7 109.264 531.232 109.415 531.706 109.717C532.184 110.015 532.561 110.457 532.84 111.044C533.122 111.627 533.262 112.343 533.262 113.192C533.262 114.03 533.125 114.743 532.85 115.33C532.575 115.916 532.2 116.364 531.726 116.672C531.252 116.98 530.715 117.134 530.115 117.134C529.678 117.134 529.315 117.061 529.027 116.915C528.738 116.77 528.506 116.594 528.331 116.388C528.158 116.18 528.024 115.982 527.928 115.797H527.853V119.864H526.054ZM527.819 113.182C527.819 113.676 527.888 114.108 528.027 114.479C528.17 114.851 528.374 115.141 528.639 115.349C528.907 115.555 529.232 115.658 529.613 115.658C530.011 115.658 530.344 115.552 530.613 115.339C530.881 115.124 531.083 114.831 531.219 114.46C531.358 114.085 531.428 113.659 531.428 113.182C531.428 112.708 531.36 112.287 531.224 111.919C531.088 111.551 530.886 111.263 530.618 111.054C530.349 110.845 530.014 110.741 529.613 110.741C529.229 110.741 528.902 110.842 528.634 111.044C528.365 111.246 528.162 111.53 528.022 111.894C527.886 112.259 527.819 112.688 527.819 113.182ZM536.603 106.818V117H534.804V106.818H536.603ZM541.835 117.149C541.069 117.149 540.408 116.99 539.851 116.672C539.298 116.35 538.872 115.896 538.573 115.31C538.275 114.72 538.126 114.025 538.126 113.227C538.126 112.441 538.275 111.752 538.573 111.158C538.875 110.562 539.296 110.098 539.836 109.766C540.376 109.432 541.011 109.264 541.74 109.264C542.211 109.264 542.655 109.34 543.073 109.493C543.494 109.642 543.865 109.874 544.186 110.189C544.511 110.504 544.766 110.905 544.952 111.392C545.137 111.876 545.23 112.453 545.23 113.122V113.674H538.971V112.461H543.505C543.502 112.116 543.427 111.81 543.281 111.541C543.136 111.269 542.932 111.056 542.67 110.9C542.411 110.744 542.11 110.666 541.765 110.666C541.397 110.666 541.074 110.756 540.796 110.935C540.517 111.11 540.3 111.342 540.144 111.631C539.992 111.916 539.914 112.229 539.911 112.57V113.629C539.911 114.073 539.992 114.455 540.154 114.773C540.317 115.088 540.544 115.33 540.835 115.499C541.127 115.664 541.468 115.747 541.86 115.747C542.121 115.747 542.358 115.711 542.57 115.638C542.783 115.562 542.967 115.451 543.122 115.305C543.278 115.159 543.396 114.978 543.475 114.763L545.156 114.952C545.05 115.396 544.847 115.784 544.549 116.115C544.254 116.443 543.876 116.698 543.416 116.881C542.955 117.06 542.428 117.149 541.835 117.149ZM552.788 111.382L551.148 111.561C551.101 111.395 551.02 111.24 550.904 111.094C550.791 110.948 550.639 110.83 550.447 110.741C550.254 110.651 550.019 110.607 549.741 110.607C549.366 110.607 549.051 110.688 548.796 110.85C548.544 111.013 548.42 111.223 548.423 111.482C548.42 111.704 548.501 111.884 548.667 112.023C548.836 112.163 549.114 112.277 549.502 112.366L550.805 112.645C551.527 112.801 552.064 113.048 552.415 113.386C552.77 113.724 552.949 114.166 552.952 114.713C552.949 115.194 552.808 115.618 552.53 115.986C552.255 116.35 551.872 116.635 551.381 116.841C550.891 117.046 550.327 117.149 549.691 117.149C548.756 117.149 548.004 116.954 547.434 116.562C546.864 116.168 546.524 115.62 546.415 114.917L548.17 114.748C548.249 115.093 548.418 115.353 548.677 115.528C548.935 115.704 549.272 115.792 549.686 115.792C550.114 115.792 550.457 115.704 550.715 115.528C550.977 115.353 551.108 115.136 551.108 114.877C551.108 114.658 551.023 114.478 550.854 114.335C550.689 114.193 550.43 114.083 550.079 114.007L548.776 113.734C548.044 113.581 547.502 113.324 547.151 112.963C546.799 112.598 546.625 112.138 546.629 111.581C546.625 111.11 546.753 110.703 547.011 110.358C547.273 110.01 547.636 109.741 548.1 109.553C548.567 109.36 549.106 109.264 549.716 109.264C550.611 109.264 551.315 109.455 551.829 109.836C552.346 110.217 552.666 110.732 552.788 111.382Z" fill="black"/>
<circle cx="400" cy="111" r="25" fill="#241B49"/>
<path d="M393.036 108.188L387.812 111L393.036 113.812M393.036 108.188L400 111.938L406.964 108.188M393.036 108.188L387.812 105.375L400 98.8125L412.188 105.375L406.964 108.188M406.964 108.188L412.188 111L406.964 113.812M406.964 113.812L412.188 116.625L400 123.188L387.812 116.625L393.036 113.812M406.964 113.812L400 117.562L393.036 113.812" stroke="white" stroke-width="1.5" stroke-linecap="round" stroke-linejoin="round"/>
<path d="M65.8686 54.3828H63.6911C63.6513 54.1011 63.5701 53.8509 63.4474 53.6321C63.3248 53.41 63.1674 53.2211 62.9751 53.0653C62.7829 52.9096 62.5608 52.7902 62.3089 52.7074C62.0604 52.6245 61.7902 52.5831 61.4986 52.5831C60.9716 52.5831 60.5125 52.714 60.1214 52.9759C59.7304 53.2344 59.4271 53.6122 59.2116 54.1094C58.9962 54.6032 58.8885 55.2031 58.8885 55.9091C58.8885 56.6349 58.9962 57.2448 59.2116 57.7386C59.4304 58.2325 59.7353 58.6054 60.1264 58.8572C60.5175 59.1091 60.9699 59.2351 61.4837 59.2351C61.772 59.2351 62.0388 59.197 62.2841 59.1207C62.5327 59.0445 62.7531 58.9335 62.9453 58.7876C63.1375 58.6385 63.2966 58.4579 63.4226 58.2457C63.5518 58.0336 63.6413 57.7917 63.6911 57.5199L65.8686 57.5298C65.8123 57.9972 65.6714 58.4479 65.446 58.8821C65.224 59.313 64.924 59.6991 64.5462 60.0405C64.1716 60.3786 63.7242 60.647 63.2038 60.8459C62.6868 61.0414 62.1018 61.1392 61.4489 61.1392C60.5407 61.1392 59.7287 60.9337 59.0128 60.5227C58.3002 60.1117 57.7367 59.5168 57.3224 58.7379C56.9115 57.959 56.706 57.0161 56.706 55.9091C56.706 54.7988 56.9148 53.8542 57.3324 53.0753C57.75 52.2964 58.3168 51.7031 59.0327 51.2955C59.7486 50.8845 60.554 50.679 61.4489 50.679C62.0388 50.679 62.5857 50.7618 63.0895 50.9276C63.5966 51.0933 64.0457 51.3352 64.4368 51.6534C64.8279 51.9683 65.1461 52.3544 65.3913 52.8118C65.6399 53.2692 65.799 53.7929 65.8686 54.3828ZM67.4123 61V50.8182H71.4293C72.1983 50.8182 72.8545 50.9557 73.3981 51.2308C73.945 51.5026 74.3609 51.8887 74.646 52.3892C74.9343 52.8864 75.0785 53.4714 75.0785 54.1442C75.0785 54.8203 74.9326 55.402 74.641 55.8892C74.3493 56.3731 73.9267 56.7443 73.3732 57.0028C72.823 57.2614 72.1568 57.3906 71.3746 57.3906H68.685V55.6605H71.0266C71.4376 55.6605 71.779 55.6042 72.0508 55.4915C72.3226 55.3788 72.5247 55.2098 72.6573 54.9844C72.7932 54.759 72.8612 54.4789 72.8612 54.1442C72.8612 53.8061 72.7932 53.5211 72.6573 53.2891C72.5247 53.0571 72.3209 52.8814 72.0458 52.7621C71.774 52.6394 71.431 52.5781 71.0167 52.5781H69.565V61H67.4123ZM72.9109 56.3665L75.4414 61H73.065L70.5891 56.3665H72.9109ZM76.5998 61V50.8182H83.4606V52.593H78.7525V55.0192H83.1076V56.794H78.7525V59.2251H83.4805V61H76.5998ZM86.927 61H84.6202L88.1351 50.8182H90.9093L94.4192 61H92.1124L89.562 53.1449H89.4824L86.927 61ZM86.7828 56.9979H92.2317V58.6783H86.7828V56.9979ZM94.0128 52.593V50.8182H102.375V52.593H99.2578V61H97.13V52.593H94.0128ZM103.752 61V50.8182H110.613V52.593H105.905V55.0192H110.26V56.794H105.905V59.2251H110.633V61H103.752Z" fill="#241B49"/>
<path d="M359 111.5L344 102.84V120.16L359 111.5ZM189 113C189.129 113 189.258 113 189.387 113C189.516 113 189.645 113 189.774 113C189.902 113 190.031 113 190.159 113C190.287 113 190.416 113 190.544 113C190.672 113 190.8 113 190.928 113C191.055 113 191.183 113 191.311 113C191.438 113 191.565 113 191.693 113C191.82 113 191.947 113 192.074 113C192.201 113 192.328 113 192.455 113C192.581 113 192.708 113 192.834 113C192.961 113 193.087 113 193.213 113C193.339 113 193.465 113 193.591 113C193.717 113 193.843 113 193.968 113C194.094 113 194.22 113 194.345 113C194.47 113 194.596 113 194.721 113C194.846 113 194.971 113 195.095 113C195.22 113 195.345 113 195.469 113C195.594 113 195.718 113 195.843 113C195.967 113 196.091 113 196.215 113C196.339 113 196.463 113 196.587 113C196.711 113 196.834 113 196.958 113C197.081 113 197.205 113 197.328 113C197.451 113 197.574 113 197.697 113C197.82 113 197.943 113 198.066 113C198.188 113 198.311 113 198.433 113C198.556 113 198.678 113 198.8 113C198.923 113 199.045 113 199.167 113C199.289 113 199.41 113 199.532 113C199.654 113 199.775 113 199.897 113C200.018 113 200.14 113 200.261 113C200.382 113 200.503 113 200.624 113C200.745 113 200.866 113 200.986 113C201.107 113 201.228 113 201.348 113C201.468 113 201.589 113 201.709 113C201.829 113 201.949 113 202.069 113C202.189 113 202.309 113 202.429 113C202.548 113 202.668 113 202.787 113C202.907 113 203.026 113 203.145 113C203.264 113 203.384 113 203.503 113C203.621 113 203.74 113 203.859 113C203.978 113 204.096 113 204.215 113C204.333 113 204.452 113 204.57 113C204.688 113 204.806 113 204.924 113C205.042 113 205.16 113 205.278 113C205.396 113 205.513 113 205.631 113C205.748 113 205.866 113 205.983 113C206.1 113 206.218 113 206.335 113C206.452 113 206.569 113 206.685 113C206.802 113 206.919 113 207.035 113C207.152 113 207.269 113 207.385 113C207.501 113 207.617 113 207.734 113C207.85 113 207.966 113 208.082 113C208.198 113 208.313 113 208.429 113C208.545 113 208.66 113 208.776 113C208.891 113 209.006 113 209.122 113C209.237 113 209.352 113 209.467 113C209.582 113 209.697 113 209.812 113C209.926 113 210.041 113 210.155 113C210.27 113 210.384 113 210.499 113C210.613 113 210.727 113 210.841 113C210.955 113 211.069 113 211.183 113C211.297 113 211.411 113 211.525 113C211.638 113 211.752 113 211.865 113C211.979 113 212.092 113 212.205 113C212.318 113 212.432 113 212.545 113C212.658 113 212.77 113 212.883 113C212.996 113 213.109 113 213.221 113C213.334 113 213.446 113 213.559 113C213.671 113 213.783 113 213.895 113C214.008 113 214.12 113 214.232 113C214.344 113 214.455 113 214.567 113C214.679 113 214.79 113 214.902 113C215.013 113 215.125 113 215.236 113C215.348 113 215.459 113 215.57 113C215.681 113 215.792 113 215.903 113C216.014 113 216.125 113 216.235 113C216.346 113 216.456 113 216.567 113C216.677 113 216.788 113 216.898 113C217.008 113 217.119 113 217.229 113C217.339 113 217.449 113 217.559 113C217.669 113 217.778 113 217.888 113C217.998 113 218.107 113 218.217 113C218.326 113 218.436 113 218.545 113C218.654 113 218.763 113 218.872 113C218.982 113 219.091 113 219.199 113C219.308 113 219.417 113 219.526 113C219.635 113 219.743 113 219.852 113C219.96 113 220.069 113 220.177 113C220.285 113 220.393 113 220.501 113C220.61 113 220.718 113 220.826 113C220.934 113 221.041 113 221.149 113C221.257 113 221.364 113 221.472 113C221.58 113 221.687 113 221.794 113C221.902 113 222.009 113 222.116 113C222.223 113 222.33 113 222.437 113C222.544 113 222.651 113 222.758 113C222.865 113 222.972 113 223.078 113C223.185 113 223.292 113 223.398 113C223.504 113 223.611 113 223.717 113C223.823 113 223.929 113 224.036 113C224.142 113 224.248 113 224.354 113C224.459 113 224.565 113 224.671 113C224.777 113 224.882 113 224.988 113C225.093 113 225.199 113 225.304 113C225.41 113 225.515 113 225.62 113C225.725 113 225.83 113 225.935 113C226.04 113 226.145 113 226.25 113C226.355 113 226.46 113 226.565 113C226.669 113 226.774 113 226.878 113C226.983 113 227.087 113 227.192 113C227.296 113 227.4 113 227.504 113C227.609 113 227.713 113 227.817 113C227.921 113 228.025 113 228.128 113C228.232 113 228.336 113 228.44 113C228.543 113 228.647 113 228.75 113C228.854 113 228.957 113 229.061 113C229.164 113 229.267 113 229.37 113C229.474 113 229.577 113 229.68 113C229.783 113 229.886 113 229.989 113C230.091 113 230.194 113 230.297 113C230.4 113 230.502 113 230.605 113C230.707 113 230.81 113 230.912 113C231.014 113 231.117 113 231.219 113C231.321 113 231.423 113 231.525 113C231.628 113 231.73 113 231.831 113C231.933 113 232.035 113 232.137 113C232.239 113 232.34 113 232.442 113C232.544 113 232.645 113 232.747 113C232.848 113 232.949 113 233.051 113C233.152 113 233.253 113 233.354 113C233.456 113 233.557 113 233.658 113C233.759 113 233.86 113 233.961 113C234.061 113 234.162 113 234.263 113C234.364 113 234.464 113 234.565 113C234.665 113 234.766 113 234.866 113C234.967 113 235.067 113 235.167 113C235.268 113 235.368 113 235.468 113C235.568 113 235.668 113 235.768 113C235.868 113 235.968 113 236.068 113C236.168 113 236.268 113 236.367 113C236.467 113 236.567 113 236.666 113C236.766 113 236.865 113 236.965 113C237.064 113 237.164 113 237.263 113C237.362 113 237.462 113 237.561 113C237.66 113 237.759 113 237.858 113C237.957 113 238.056 113 238.155 113C238.254 113 238.353 113 238.452 113C238.55 113 238.649 113 238.748 113C238.846 113 238.945 113 239.043 113C239.142 113 239.24 113 239.339 113C239.437 113 239.536 113 239.634 113C239.732 113 239.83 113 239.928 113C240.027 113 240.125 113 240.223 113C240.321 113 240.419 113 240.517 113C240.614 113 240.712 113 240.81 113C240.908 113 241.005 113 241.103 113C241.201 113 241.298 113 241.396 113C241.493 113 241.591 113 241.688 113C241.786 113 241.883 113 241.98 113C242.078 113 242.175 113 242.272 113C242.369 113 242.466 113 242.563 113C242.66 113 242.757 113 242.854 113C242.951 113 243.048 113 243.145 113C243.242 113 243.338 113 243.435 113C243.532 113 243.628 113 243.725 113C243.822 113 243.918 113 244.015 113C244.111 113 244.207 113 244.304 113C244.4 113 244.496 113 244.593 113C244.689 113 244.785 113 244.881 113C244.977 113 245.074 113 245.17 113C245.266 113 245.362 113 245.458 113C245.553 113 245.649 113 245.745 113C245.841 113 245.937 113 246.033 113C246.128 113 246.224 113 246.32 113C246.415 113 246.511 113 246.606 113C246.702 113 246.797 113 246.893 113C246.988 113 247.083 113 247.179 113C247.274 113 247.369 113 247.464 113C247.56 113 247.655 113 247.75 113C247.845 113 247.94 113 248.035 113C248.13 113 248.225 113 248.32 113C248.415 113 248.51 113 248.605 113C248.699 113 248.794 113 248.889 113C248.984 113 249.078 113 249.173 113C249.268 113 249.362 113 249.457 113C249.551 113 249.646 113 249.74 113C249.835 113 249.929 113 250.023 113C250.118 113 250.212 113 250.306 113C250.401 113 250.495 113 250.589 113C250.683 113 250.777 113 250.871 113C250.966 113 251.06 113 251.154 113C251.248 113 251.342 113 251.436 113C251.529 113 251.623 113 251.717 113C251.811 113 251.905 113 251.999 113C252.092 113 252.186 113 252.28 113C252.373 113 252.467 113 252.561 113C252.654 113 252.748 113 252.841 113C252.935 113 253.028 113 253.122 113C253.215 113 253.308 113 253.402 113C253.495 113 253.589 113 253.682 113C253.775 113 253.868 113 253.962 113C254.055 113 254.148 113 254.241 113C254.334 113 254.427 113 254.52 113C254.613 113 254.706 113 254.799 113C254.892 113 254.985 113 255.078 113C255.171 113 255.264 113 255.357 113C255.45 113 255.542 113 255.635 113C255.728 113 255.821 113 255.913 113C256.006 113 256.099 113 256.191 113C256.284 113 256.377 113 256.469 113C256.562 113 256.654 113 256.747 113C256.839 113 256.932 113 257.024 113C257.117 113 257.209 113 257.301 113C257.394 113 257.486 113 257.578 113C257.671 113 257.763 113 257.855 113C257.947 113 258.04 113 258.132 113C258.224 113 258.316 113 258.408 113C258.5 113 258.593 113 258.685 113C258.777 113 258.869 113 258.961 113C259.053 113 259.145 113 259.237 113C259.329 113 259.421 113 259.512 113C259.604 113 259.696 113 259.788 113C259.88 113 259.972 113 260.064 113C260.155 113 260.247 113 260.339 113C260.431 113 260.522 113 260.614 113C260.706 113 260.797 113 260.889 113C260.981 113 261.072 113 261.164 113C261.255 113 261.347 113 261.439 113C261.53 113 261.622 113 261.713 113C261.805 113 261.896 113 261.988 113C262.079 113 262.17 113 262.262 113C262.353 113 262.445 113 262.536 113C262.627 113 262.719 113 262.81 113C262.901 113 262.993 113 263.084 113C263.175 113 263.266 113 263.358 113C263.449 113 263.54 113 263.631 113C263.722 113 263.814 113 263.905 113C263.996 113 264.087 113 264.178 113C264.269 113 264.36 113 264.451 113C264.543 113 264.634 113 264.725 113C264.816 113 264.907 113 264.998 113C265.089 113 265.18 113 265.271 113C265.362 113 265.453 113 265.544 113C265.635 113 265.725 113 265.816 113C265.907 113 265.998 113 266.089 113C266.18 113 266.271 113 266.362 113C266.453 113 266.543 113 266.634 113C266.725 113 266.816 113 266.907 113C266.997 113 267.088 113 267.179 113C267.27 113 267.36 113 267.451 113C267.542 113 267.633 113 267.723 113C267.814 113 267.905 113 267.996 113C268.086 113 268.177 113 268.268 113C268.358 113 268.449 113 268.54 113C268.63 113 268.721 113 268.812 113C268.902 113 268.993 113 269.083 113C269.174 113 269.265 113 269.355 113C269.446 113 269.536 113 269.627 113C269.718 113 269.808 113 269.899 113C269.989 113 270.08 113 270.17 113C270.261 113 270.351 113 270.442 113C270.532 113 270.623 113 270.714 113C270.804 113 270.895 113 270.985 113C271.076 113 271.166 113 271.257 113C271.347 113 271.438 113 271.528 113C271.619 113 271.709 113 271.8 113C271.89 113 271.98 113 272.071 113C272.161 113 272.252 113 272.342 113C272.433 113 272.523 113 272.614 113C272.704 113 272.795 113 272.885 113C272.976 113 273.066 113 273.156 113C273.247 113 273.337 113 273.428 113C273.518 113 273.609 113 273.699 113C273.79 113 273.88 113 273.97 113C274.061 113 274.151 113 274.242 113C274.332 113 274.423 113 274.513 113C274.604 113 274.694 113 274.784 113C274.875 113 274.965 113 275.056 113C275.146 113 275.237 113 275.327 113C275.418 113 275.508 113 275.599 113C275.689 113 275.779 113 275.87 113C275.96 113 276.051 113 276.141 113C276.232 113 276.322 113 276.413 113C276.503 113 276.594 113 276.684 113C276.775 113 276.865 113 276.956 113C277.046 113 277.137 113 277.227 113C277.318 113 277.408 113 277.499 113C277.589 113 277.68 113 277.771 113C277.861 113 277.952 113 278.042 113C278.133 113 278.223 113 278.314 113C278.404 113 278.495 113 278.586 113C278.676 113 278.767 113 278.857 113C278.948 113 279.039 113 279.129 113C279.22 113 279.311 113 279.401 113C279.492 113 279.583 113 279.673 113C279.764 113 279.855 113 279.945 113C280.036 113 280.127 113 280.217 113C280.308 113 280.399 113 280.49 113C280.58 113 280.671 113 280.762 113C280.853 113 280.943 113 281.034 113C281.125 113 281.216 113 281.307 113C281.397 113 281.488 113 281.579 113C281.67 113 281.761 113 281.852 113C281.942 113 282.033 113 282.124 113C282.215 113 282.306 113 282.397 113C282.488 113 282.579 113 282.67 113C282.761 113 282.852 113 282.943 113C283.034 113 283.125 113 283.216 113C283.307 113 283.398 113 283.489 113C283.58 113 283.671 113 283.762 113C283.853 113 283.945 113 284.036 113C284.127 113 284.218 113 284.309 113C284.4 113 284.492 113 284.583 113C284.674 113 284.765 113 284.857 113C284.948 113 285.039 113 285.13 113C285.222 113 285.313 113 285.404 113C285.496 113 285.587 113 285.679 113C285.77 113 285.861 113 285.953 113C286.044 113 286.136 113 286.227 113C286.319 113 286.41 113 286.502 113C286.593 113 286.685 113 286.776 113C286.868 113 286.96 113 287.051 113C287.143 113 287.234 113 287.326 113C287.418 113 287.509 113 287.601 113C287.693 113 287.785 113 287.876 113C287.968 113 288.06 113 288.152 113C288.244 113 288.336 113 288.427 113C288.519 113 288.611 113 288.703 113C288.795 113 288.887 113 288.979 113C289.071 113 289.163 113 289.255 113C289.347 113 289.439 113 289.531 113C289.624 113 289.716 113 289.808 113C289.9 113 289.992 113 290.085 113C290.177 113 290.269 113 290.361 113C290.454 113 290.546 113 290.638 113C290.731 113 290.823 113 290.915 113C291.008 113 291.1 113 291.193 113C291.285 113 291.378 113 291.47 113C291.563 113 291.656 113 291.748 113C291.841 113 291.933 113 292.026 113C292.119 113 292.211 113 292.304 113C292.397 113 292.49 113 292.583 113C292.675 113 292.768 113 292.861 113C292.954 113 293.047 113 293.14 113C293.233 113 293.326 113 293.419 113C293.512 113 293.605 113 293.698 113C293.791 113 293.884 113 293.978 113C294.071 113 294.164 113 294.257 113C294.351 113 294.444 113 294.537 113C294.631 113 294.724 113 294.817 113C294.911 113 295.004 113 295.098 113C295.191 113 295.285 113 295.378 113C295.472 113 295.565 113 295.659 113C295.753 113 295.846 113 295.94 113C296.034 113 296.128 113 296.222 113C296.315 113 296.409 113 296.503 113C296.597 113 296.691 113 296.785 113C296.879 113 296.973 113 297.067 113C297.161 113 297.255 113 297.349 113C297.444 113 297.538 113 297.632 113C297.726 113 297.821 113 297.915 113C298.009 113 298.104 113 298.198 113C298.293 113 298.387 113 298.482 113C298.576 113 298.671 113 298.765 113C298.86 113 298.955 113 299.049 113C299.144 113 299.239 113 299.333 113C299.428 113 299.523 113 299.618 113C299.713 113 299.808 113 299.903 113C299.998 113 300.093 113 300.188 113C300.283 113 300.378 113 300.473 113C300.569 113 300.664 113 300.759 113C300.854 113 300.95 113 301.045 113C301.141 113 301.236 113 301.331 113C301.427 113 301.522 113 301.618 113C301.714 113 301.809 113 301.905 113C302.001 113 302.096 113 302.192 113C302.288 113 302.384 113 302.48 113C302.576 113 302.672 113 302.768 113C302.864 113 302.96 113 303.056 113C303.152 113 303.248 113 303.344 113C303.441 113 303.537 113 303.633 113C303.73 113 303.826 113 303.922 113C304.019 113 304.115 113 304.212 113C304.309 113 304.405 113 304.502 113C304.598 113 304.695 113 304.792 113C304.889 113 304.986 113 305.083 113C305.179 113 305.276 113 305.373 113C305.47 113 305.568 113 305.665 113C305.762 113 305.859 113 305.956 113C306.053 113 306.151 113 306.248 113C306.346 113 306.443 113 306.54 113C306.638 113 306.736 113 306.833 113C306.931 113 307.028 113 307.126 113C307.224 113 307.322 113 307.42 113C307.517 113 307.615 113 307.713 113C307.811 113 307.909 113 308.007 113C308.106 113 308.204 113 308.302 113C308.4 113 308.499 113 308.597 113C308.695 113 308.794 113 308.892 113C308.991 113 309.089 113 309.188 113C309.286 113 309.385 113 309.484 113C309.583 113 309.681 113 309.78 113C309.879 113 309.978 113 310.077 113C310.176 113 310.275 113 310.374 113C310.474 113 310.573 113 310.672 113C310.771 113 310.871 113 310.97 113C311.07 113 311.169 113 311.269 113C311.368 113 311.468 113 311.567 113C311.667 113 311.767 113 311.867 113C311.967 113 312.066 113 312.166 113C312.266 113 312.366 113 312.467 113C312.567 113 312.667 113 312.767 113C312.867 113 312.968 113 313.068 113C313.168 113 313.269 113 313.37 113C313.47 113 313.571 113 313.671 113C313.772 113 313.873 113 313.974 113C314.074 113 314.175 113 314.276 113C314.377 113 314.478 113 314.579 113C314.681 113 314.782 113 314.883 113C314.984 113 315.086 113 315.187 113C315.289 113 315.39 113 315.492 113C315.593 113 315.695 113 315.797 113C315.898 113 316 113 316.102 113C316.204 113 316.306 113 316.408 113C316.51 113 316.612 113 316.714 113C316.816 113 316.919 113 317.021 113C317.123 113 317.226 113 317.328 113C317.431 113 317.533 113 317.636 113C317.739 113 317.841 113 317.944 113C318.047 113 318.15 113 318.253 113C318.356 113 318.459 113 318.562 113C318.665 113 318.769 113 318.872 113C318.975 113 319.079 113 319.182 113C319.285 113 319.389 113 319.493 113C319.596 113 319.7 113 319.804 113C319.908 113 320.011 113 320.115 113C320.219 113 320.323 113 320.428 113C320.532 113 320.636 113 320.74 113C320.845 113 320.949 113 321.053 113C321.158 113 321.262 113 321.367 113C321.472 113 321.576 113 321.681 113C321.786 113 321.891 113 321.996 113C322.101 113 322.206 113 322.311 113C322.416 113 322.522 113 322.627 113C322.732 113 322.838 113 322.943 113C323.049 113 323.154 113 323.26 113C323.366 113 323.471 113 323.577 113C323.683 113 323.789 113 323.895 113C324.001 113 324.107 113 324.214 113C324.32 113 324.426 113 324.533 113C324.639 113 324.745 113 324.852 113C324.959 113 325.065 113 325.172 113C325.279 113 325.386 113 325.493 113C325.6 113 325.707 113 325.814 113C325.921 113 326.028 113 326.135 113C326.243 113 326.35 113 326.458 113C326.565 113 326.673 113 326.781 113C326.888 113 326.996 113 327.104 113C327.212 113 327.32 113 327.428 113C327.536 113 327.644 113 327.752 113C327.861 113 327.969 113 328.078 113C328.186 113 328.295 113 328.403 113C328.512 113 328.621 113 328.729 113C328.838 113 328.947 113 329.056 113C329.165 113 329.275 113 329.384 113C329.493 113 329.602 113 329.712 113C329.821 113 329.931 113 330.04 113C330.15 113 330.26 113 330.37 113C330.479 113 330.589 113 330.699 113C330.809 113 330.92 113 331.03 113C331.14 113 331.25 113 331.361 113C331.471 113 331.582 113 331.693 113C331.803 113 331.914 113 332.025 113C332.136 113 332.247 113 332.358 113C332.469 113 332.58 113 332.691 113C332.802 113 332.914 113 333.025 113C333.137 113 333.248 113 333.36 113C333.472 113 333.583 113 333.695 113C333.807 113 333.919 113 334.031 113C334.143 113 334.256 113 334.368 113C334.48 113 334.593 113 334.705 113C334.818 113 334.93 113 335.043 113C335.156 113 335.269 113 335.382 113C335.495 113 335.608 113 335.721 113C335.834 113 335.947 113 336.061 113C336.174 113 336.288 113 336.401 113C336.515 113 336.628 113 336.742 113C336.856 113 336.97 113 337.084 113C337.198 113 337.312 113 337.427 113C337.541 113 337.655 113 337.77 113C337.884 113 337.999 113 338.114 113C338.228 113 338.343 113 338.458 113C338.573 113 338.688 113 338.803 113C338.918 113 339.034 113 339.149 113C339.264 113 339.38 113 339.495 113C339.611 113 339.727 113 339.843 113C339.959 113 340.074 113 340.191 113C340.307 113 340.423 113 340.539 113C340.655 113 340.772 113 340.888 113C341.005 113 341.122 113 341.238 113C341.355 113 341.472 113 341.589 113C341.706 113 341.823 113 341.94 113C342.058 113 342.175 113 342.292 113C342.41 113 342.527 113 342.645 113C342.763 113 342.881 113 342.999 113C343.117 113 343.235 113 343.353 113C343.471 113 343.589 113 343.708 113C343.826 113 343.945 113 344.063 113C344.182 113 344.301 113 344.42 113C344.539 113 344.658 113 344.777 113C344.896 113 345.015 113 345.135 113C345.254 113 345.374 113 345.493 113V110C345.374 110 345.254 110 345.135 110C345.015 110 344.896 110 344.777 110C344.658 110 344.539 110 344.42 110C344.301 110 344.182 110 344.063 110C343.945 110 343.826 110 343.708 110C343.589 110 343.471 110 343.353 110C343.235 110 343.117 110 342.999 110C342.881 110 342.763 110 342.645 110C342.527 110 342.41 110 342.292 110C342.175 110 342.058 110 341.94 110C341.823 110 341.706 110 341.589 110C341.472 110 341.355 110 341.238 110C341.122 110 341.005 110 340.888 110C340.772 110 340.655 110 340.539 110C340.423 110 340.307 110 340.191 110C340.074 110 339.959 110 339.843 110C339.727 110 339.611 110 339.495 110C339.38 110 339.264 110 339.149 110C339.034 110 338.918 110 338.803 110C338.688 110 338.573 110 338.458 110C338.343 110 338.228 110 338.114 110C337.999 110 337.884 110 337.77 110C337.655 110 337.541 110 337.427 110C337.312 110 337.198 110 337.084 110C336.97 110 336.856 110 336.742 110C336.628 110 336.515 110 336.401 110C336.288 110 336.174 110 336.061 110C335.947 110 335.834 110 335.721 110C335.608 110 335.495 110 335.382 110C335.269 110 335.156 110 335.043 110C334.93 110 334.818 110 334.705 110C334.593 110 334.48 110 334.368 110C334.256 110 334.143 110 334.031 110C333.919 110 333.807 110 333.695 110C333.583 110 333.472 110 333.36 110C333.248 110 333.137 110 333.025 110C332.914 110 332.802 110 332.691 110C332.58 110 332.469 110 332.358 110C332.247 110 332.136 110 332.025 110C331.914 110 331.803 110 331.693 110C331.582 110 331.471 110 331.361 110C331.25 110 331.14 110 331.03 110C330.92 110 330.809 110 330.699 110C330.589 110 330.479 110 330.37 110C330.26 110 330.15 110 330.04 110C329.931 110 329.821 110 329.712 110C329.602 110 329.493 110 329.384 110C329.275 110 329.165 110 329.056 110C328.947 110 328.838 110 328.729 110C328.621 110 328.512 110 328.403 110C328.295 110 328.186 110 328.078 110C327.969 110 327.861 110 327.752 110C327.644 110 327.536 110 327.428 110C327.32 110 327.212 110 327.104 110C326.996 110 326.888 110 326.781 110C326.673 110 326.565 110 326.458 110C326.35 110 326.243 110 326.135 110C326.028 110 325.921 110 325.814 110C325.707 110 325.6 110 325.493 110C325.386 110 325.279 110 325.172 110C325.065 110 324.959 110 324.852 110C324.745 110 324.639 110 324.533 110C324.426 110 324.32 110 324.214 110C324.107 110 324.001 110 323.895 110C323.789 110 323.683 110 323.577 110C323.471 110 323.366 110 323.26 110C323.154 110 323.049 110 322.943 110C322.838 110 322.732 110 322.627 110C322.522 110 322.416 110 322.311 110C322.206 110 322.101 110 321.996 110C321.891 110 321.786 110 321.681 110C321.576 110 321.472 110 321.367 110C321.262 110 321.158 110 321.053 110C320.949 110 320.845 110 320.74 110C320.636 110 320.532 110 320.428 110C320.323 110 320.219 110 320.115 110C320.011 110 319.908 110 319.804 110C319.7 110 319.596 110 319.493 110C319.389 110 319.285 110 319.182 110C319.079 110 318.975 110 318.872 110C318.769 110 318.665 110 318.562 110C318.459 110 318.356 110 318.253 110C318.15 110 318.047 110 317.944 110C317.841 110 317.739 110 317.636 110C317.533 110 317.431 110 317.328 110C317.226 110 317.123 110 317.021 110C316.919 110 316.816 110 316.714 110C316.612 110 316.51 110 316.408 110C316.306 110 316.204 110 316.102 110C316 110 315.898 110 315.797 110C315.695 110 315.593 110 315.492 110C315.39 110 315.289 110 315.187 110C315.086 110 314.984 110 314.883 110C314.782 110 314.681 110 314.579 110C314.478 110 314.377 110 314.276 110C314.175 110 314.074 110 313.974 110C313.873 110 313.772 110 313.671 110C313.571 110 313.47 110 313.37 110C313.269 110 313.168 110 313.068 110C312.968 110 312.867 110 312.767 110C312.667 110 312.567 110 312.467 110C312.366 110 312.266 110 312.166 110C312.066 110 311.967 110 311.867 110C311.767 110 311.667 110 311.567 110C311.468 110 311.368 110 311.269 110C311.169 110 311.07 110 310.97 110C310.871 110 310.771 110 310.672 110C310.573 110 310.474 110 310.374 110C310.275 110 310.176 110 310.077 110C309.978 110 309.879 110 309.78 110C309.681 110 309.583 110 309.484 110C309.385 110 309.286 110 309.188 110C309.089 110 308.991 110 308.892 110C308.794 110 308.695 110 308.597 110C308.499 110 308.4 110 308.302 110C308.204 110 308.106 110 308.007 110C307.909 110 307.811 110 307.713 110C307.615 110 307.517 110 307.42 110C307.322 110 307.224 110 307.126 110C307.028 110 306.931 110 306.833 110C306.736 110 306.638 110 306.54 110C306.443 110 306.346 110 306.248 110C306.151 110 306.053 110 305.956 110C305.859 110 305.762 110 305.665 110C305.568 110 305.47 110 305.373 110C305.276 110 305.179 110 305.083 110C304.986 110 304.889 110 304.792 110C304.695 110 304.598 110 304.502 110C304.405 110 304.309 110 304.212 110C304.115 110 304.019 110 303.922 110C303.826 110 303.73 110 303.633 110C303.537 110 303.441 110 303.344 110C303.248 110 303.152 110 303.056 110C302.96 110 302.864 110 302.768 110C302.672 110 302.576 110 302.48 110C302.384 110 302.288 110 302.192 110C302.096 110 302.001 110 301.905 110C301.809 110 301.714 110 301.618 110C301.522 110 301.427 110 301.331 110C301.236 110 301.141 110 301.045 110C300.95 110 300.854 110 300.759 110C300.664 110 300.569 110 300.473 110C300.378 110 300.283 110 300.188 110C300.093 110 299.998 110 299.903 110C299.808 110 299.713 110 299.618 110C299.523 110 299.428 110 299.333 110C299.239 110 299.144 110 299.049 110C298.955 110 298.86 110 298.765 110C298.671 110 298.576 110 298.482 110C298.387 110 298.293 110 298.198 110C298.104 110 298.009 110 297.915 110C297.821 110 297.726 110 297.632 110C297.538 110 297.444 110 297.349 110C297.255 110 297.161 110 297.067 110C296.973 110 296.879 110 296.785 110C296.691 110 296.597 110 296.503 110C296.409 110 296.315 110 296.222 110C296.128 110 296.034 110 295.94 110C295.846 110 295.753 110 295.659 110C295.565 110 295.472 110 295.378 110C295.285 110 295.191 110 295.098 110C295.004 110 294.911 110 294.817 110C294.724 110 294.631 110 294.537 110C294.444 110 294.351 110 294.257 110C294.164 110 294.071 110 293.978 110C293.884 110 293.791 110 293.698 110C293.605 110 293.512 110 293.419 110C293.326 110 293.233 110 293.14 110C293.047 110 292.954 110 292.861 110C292.768 110 292.675 110 292.583 110C292.49 110 292.397 110 292.304 110C292.211 110 292.119 110 292.026 110C291.933 110 291.841 110 291.748 110C291.656 110 291.563 110 291.47 110C291.378 110 291.285 110 291.193 110C291.1 110 291.008 110 290.915 110C290.823 110 290.731 110 290.638 110C290.546 110 290.454 110 290.361 110C290.269 110 290.177 110 290.085 110C289.992 110 289.9 110 289.808 110C289.716 110 289.624 110 289.531 110C289.439 110 289.347 110 289.255 110C289.163 110 289.071 110 288.979 110C288.887 110 288.795 110 288.703 110C288.611 110 288.519 110 288.427 110C288.336 110 288.244 110 288.152 110C288.06 110 287.968 110 287.876 110C287.785 110 287.693 110 287.601 110C287.509 110 287.418 110 287.326 110C287.234 110 287.143 110 287.051 110C286.96 110 286.868 110 286.776 110C286.685 110 286.593 110 286.502 110C286.41 110 286.319 110 286.227 110C286.136 110 286.044 110 285.953 110C285.861 110 285.77 110 285.679 110C285.587 110 285.496 110 285.404 110C285.313 110 285.222 110 285.13 110C285.039 110 284.948 110 284.857 110C284.765 110 284.674 110 284.583 110C284.492 110 284.4 110 284.309 110C284.218 110 284.127 110 284.036 110C283.945 110 283.853 110 283.762 110C283.671 110 283.58 110 283.489 110C283.398 110 283.307 110 283.216 110C283.125 110 283.034 110 282.943 110C282.852 110 282.761 110 282.67 110C282.579 110 282.488 110 282.397 110C282.306 110 282.215 110 282.124 110C282.033 110 281.942 110 281.852 110C281.761 110 281.67 110 281.579 110C281.488 110 281.397 110 281.307 110C281.216 110 281.125 110 281.034 110C280.943 110 280.853 110 280.762 110C280.671 110 280.58 110 280.49 110C280.399 110 280.308 110 280.217 110C280.127 110 280.036 110 279.945 110C279.855 110 279.764 110 279.673 110C279.583 110 279.492 110 279.401 110C279.311 110 279.22 110 279.129 110C279.039 110 278.948 110 278.857 110C278.767 110 278.676 110 278.586 110C278.495 110 278.404 110 278.314 110C278.223 110 278.133 110 278.042 110C277.952 110 277.861 110 277.771 110C277.68 110 277.589 110 277.499 110C277.408 110 277.318 110 277.227 110C277.137 110 277.046 110 276.956 110C276.865 110 276.775 110 276.684 110C276.594 110 276.503 110 276.413 110C276.322 110 276.232 110 276.141 110C276.051 110 275.96 110 275.87 110C275.779 110 275.689 110 275.599 110C275.508 110 275.418 110 275.327 110C275.237 110 275.146 110 275.056 110C274.965 110 274.875 110 274.784 110C274.694 110 274.604 110 274.513 110C274.423 110 274.332 110 274.242 110C274.151 110 274.061 110 273.97 110C273.88 110 273.79 110 273.699 110C273.609 110 273.518 110 273.428 110C273.337 110 273.247 110 273.156 110C273.066 110 272.976 110 272.885 110C272.795 110 272.704 110 272.614 110C272.523 110 272.433 110 272.342 110C272.252 110 272.161 110 272.071 110C271.98 110 271.89 110 271.8 110C271.709 110 271.619 110 271.528 110C271.438 110 271.347 110 271.257 110C271.166 110 271.076 110 270.985 110C270.895 110 270.804 110 270.714 110C270.623 110 270.532 110 270.442 110C270.351 110 270.261 110 270.17 110C270.08 110 269.989 110 269.899 110C269.808 110 269.718 110 269.627 110C269.536 110 269.446 110 269.355 110C269.265 110 269.174 110 269.083 110C268.993 110 268.902 110 268.812 110C268.721 110 268.63 110 268.54 110C268.449 110 268.358 110 268.268 110C268.177 110 268.086 110 267.996 110C267.905 110 267.814 110 267.723 110C267.633 110 267.542 110 267.451 110C267.36 110 267.27 110 267.179 110C267.088 110 266.997 110 266.907 110C266.816 110 266.725 110 266.634 110C266.543 110 266.453 110 266.362 110C266.271 110 266.18 110 266.089 110C265.998 110 265.907 110 265.816 110C265.725 110 265.635 110 265.544 110C265.453 110 265.362 110 265.271 110C265.18 110 265.089 110 264.998 110C264.907 110 264.816 110 264.725 110C264.634 110 264.543 110 264.451 110C264.36 110 264.269 110 264.178 110C264.087 110 263.996 110 263.905 110C263.814 110 263.722 110 263.631 110C263.54 110 263.449 110 263.358 110C263.266 110 263.175 110 263.084 110C262.993 110 262.901 110 262.81 110C262.719 110 262.627 110 262.536 110C262.445 110 262.353 110 262.262 110C262.17 110 262.079 110 261.988 110C261.896 110 261.805 110 261.713 110C261.622 110 261.53 110 261.439 110C261.347 110 261.255 110 261.164 110C261.072 110 260.981 110 260.889 110C260.797 110 260.706 110 260.614 110C260.522 110 260.431 110 260.339 110C260.247 110 260.155 110 260.064 110C259.972 110 259.88 110 259.788 110C259.696 110 259.604 110 259.512 110C259.421 110 259.329 110 259.237 110C259.145 110 259.053 110 258.961 110C258.869 110 258.777 110 258.685 110C258.593 110 258.5 110 258.408 110C258.316 110 258.224 110 258.132 110C258.04 110 257.947 110 257.855 110C257.763 110 257.671 110 257.578 110C257.486 110 257.394 110 257.301 110C257.209 110 257.117 110 257.024 110C256.932 110 256.839 110 256.747 110C256.654 110 256.562 110 256.469 110C256.377 110 256.284 110 256.191 110C256.099 110 256.006 110 255.913 110C255.821 110 255.728 110 255.635 110C255.542 110 255.45 110 255.357 110C255.264 110 255.171 110 255.078 110C254.985 110 254.892 110 254.799 110C254.706 110 254.613 110 254.52 110C254.427 110 254.334 110 254.241 110C254.148 110 254.055 110 253.962 110C253.868 110 253.775 110 253.682 110C253.589 110 253.495 110 253.402 110C253.308 110 253.215 110 253.122 110C253.028 110 252.935 110 252.841 110C252.748 110 252.654 110 252.561 110C252.467 110 252.373 110 252.28 110C252.186 110 252.092 110 251.999 110C251.905 110 251.811 110 251.717 110C251.623 110 251.529 110 251.436 110C251.342 110 251.248 110 251.154 110C251.06 110 250.966 110 250.871 110C250.777 110 250.683 110 250.589 110C250.495 110 250.401 110 250.306 110C250.212 110 250.118 110 250.023 110C249.929 110 249.835 110 249.74 110C249.646 110 249.551 110 249.457 110C249.362 110 249.268 110 249.173 110C249.078 110 248.984 110 248.889 110C248.794 110 248.699 110 248.605 110C248.51 110 248.415 110 248.32 110C248.225 110 248.13 110 248.035 110C247.94 110 247.845 110 247.75 110C247.655 110 247.56 110 247.464 110C247.369 110 247.274 110 247.179 110C247.083 110 246.988 110 246.893 110C246.797 110 246.702 110 246.606 110C246.511 110 246.415 110 246.32 110C246.224 110 246.128 110 246.033 110C245.937 110 245.841 110 245.745 110C245.649 110 245.553 110 245.458 110C245.362 110 245.266 110 245.17 110C245.074 110 244.977 110 244.881 110C244.785 110 244.689 110 244.593 110C244.496 110 244.4 110 244.304 110C244.207 110 244.111 110 244.015 110C243.918 110 243.822 110 243.725 110C243.628 110 243.532 110 243.435 110C243.338 110 243.242 110 243.145 110C243.048 110 242.951 110 242.854 110C242.757 110 242.66 110 242.563 110C242.466 110 242.369 110 242.272 110C242.175 110 242.078 110 241.98 110C241.883 110 241.786 110 241.688 110C241.591 110 241.493 110 241.396 110C241.298 110 241.201 110 241.103 110C241.005 110 240.908 110 240.81 110C240.712 110 240.614 110 240.517 110C240.419 110 240.321 110 240.223 110C240.125 110 240.027 110 239.928 110C239.83 110 239.732 110 239.634 110C239.536 110 239.437 110 239.339 110C239.24 110 239.142 110 239.043 110C238.945 110 238.846 110 238.748 110C238.649 110 238.55 110 238.452 110C238.353 110 238.254 110 238.155 110C238.056 110 237.957 110 237.858 110C237.759 110 237.66 110 237.561 110C237.462 110 237.362 110 237.263 110C237.164 110 237.064 110 236.965 110C236.865 110 236.766 110 236.666 110C236.567 110 236.467 110 236.367 110C236.268 110 236.168 110 236.068 110C235.968 110 235.868 110 235.768 110C235.668 110 235.568 110 235.468 110C235.368 110 235.268 110 235.167 110C235.067 110 234.967 110 234.866 110C234.766 110 234.665 110 234.565 110C234.464 110 234.364 110 234.263 110C234.162 110 234.061 110 233.961 110C233.86 110 233.759 110 233.658 110C233.557 110 233.456 110 233.354 110C233.253 110 233.152 110 233.051 110C232.949 110 232.848 110 232.747 110C232.645 110 232.544 110 232.442 110C232.34 110 232.239 110 232.137 110C232.035 110 231.933 110 231.831 110C231.73 110 231.628 110 231.525 110C231.423 110 231.321 110 231.219 110C231.117 110 231.014 110 230.912 110C230.81 110 230.707 110 230.605 110C230.502 110 230.4 110 230.297 110C230.194 110 230.091 110 229.989 110C229.886 110 229.783 110 229.68 110C229.577 110 229.474 110 229.37 110C229.267 110 229.164 110 229.061 110C228.957 110 228.854 110 228.75 110C228.647 110 228.543 110 228.44 110C228.336 110 228.232 110 228.128 110C228.025 110 227.921 110 227.817 110C227.713 110 227.609 110 227.504 110C227.4 110 227.296 110 227.192 110C227.087 110 226.983 110 226.878 110C226.774 110 226.669 110 226.565 110C226.46 110 226.355 110 226.25 110C226.145 110 226.04 110 225.935 110C225.83 110 225.725 110 225.62 110C225.515 110 225.41 110 225.304 110C225.199 110 225.093 110 224.988 110C224.882 110 224.777 110 224.671 110C224.565 110 224.459 110 224.354 110C224.248 110 224.142 110 224.036 110C223.929 110 223.823 110 223.717 110C223.611 110 223.504 110 223.398 110C223.292 110 223.185 110 223.078 110C222.972 110 222.865 110 222.758 110C222.651 110 222.544 110 222.437 110C222.33 110 222.223 110 222.116 110C222.009 110 221.902 110 221.794 110C221.687 110 221.58 110 221.472 110C221.364 110 221.257 110 221.149 110C221.041 110 220.934 110 220.826 110C220.718 110 220.61 110 220.501 110C220.393 110 220.285 110 220.177 110C220.069 110 219.96 110 219.852 110C219.743 110 219.635 110 219.526 110C219.417 110 219.308 110 219.199 110C219.091 110 218.982 110 218.872 110C218.763 110 218.654 110 218.545 110C218.436 110 218.326 110 218.217 110C218.107 110 217.998 110 217.888 110C217.778 110 217.669 110 217.559 110C217.449 110 217.339 110 217.229 110C217.119 110 217.008 110 216.898 110C216.788 110 216.677 110 216.567 110C216.456 110 216.346 110 216.235 110C216.125 110 216.014 110 215.903 110C215.792 110 215.681 110 215.57 110C215.459 110 215.348 110 215.236 110C215.125 110 215.013 110 214.902 110C214.79 110 214.679 110 214.567 110C214.455 110 214.344 110 214.232 110C214.12 110 214.008 110 213.895 110C213.783 110 213.671 110 213.559 110C213.446 110 213.334 110 213.221 110C213.109 110 212.996 110 212.883 110C212.77 110 212.658 110 212.545 110C212.432 110 212.318 110 212.205 110C212.092 110 211.979 110 211.865 110C211.752 110 211.638 110 211.525 110C211.411 110 211.297 110 211.183 110C211.069 110 210.955 110 210.841 110C210.727 110 210.613 110 210.499 110C210.384 110 210.27 110 210.155 110C210.041 110 209.926 110 209.812 110C209.697 110 209.582 110 209.467 110C209.352 110 209.237 110 209.122 110C209.006 110 208.891 110 208.776 110C208.66 110 208.545 110 208.429 110C208.313 110 208.198 110 208.082 110C207.966 110 207.85 110 207.734 110C207.617 110 207.501 110 207.385 110C207.269 110 207.152 110 207.035 110C206.919 110 206.802 110 206.685 110C206.569 110 206.452 110 206.335 110C206.218 110 206.1 110 205.983 110C205.866 110 205.748 110 205.631 110C205.513 110 205.396 110 205.278 110C205.16 110 205.042 110 204.924 110C204.806 110 204.688 110 204.57 110C204.452 110 204.333 110 204.215 110C204.096 110 203.978 110 203.859 110C203.74 110 203.621 110 203.503 110C203.384 110 203.264 110 203.145 110C203.026 110 202.907 110 202.787 110C202.668 110 202.548 110 202.429 110C202.309 110 202.189 110 202.069 110C201.949 110 201.829 110 201.709 110C201.589 110 201.468 110 201.348 110C201.228 110 201.107 110 200.986 110C200.866 110 200.745 110 200.624 110C200.503 110 200.382 110 200.261 110C200.14 110 200.018 110 199.897 110C199.775 110 199.654 110 199.532 110C199.41 110 199.289 110 199.167 110C199.045 110 198.923 110 198.8 110C198.678 110 198.556 110 198.433 110C198.311 110 198.188 110 198.066 110C197.943 110 197.82 110 197.697 110C197.574 110 197.451 110 197.328 110C197.205 110 197.081 110 196.958 110C196.834 110 196.711 110 196.587 110C196.463 110 196.339 110 196.215 110C196.091 110 195.967 110 195.843 110C195.718 110 195.594 110 195.469 110C195.345 110 195.22 110 195.095 110C194.971 110 194.846 110 194.721 110C194.596 110 194.47 110 194.345 110C194.22 110 194.094 110 193.968 110C193.843 110 193.717 110 193.591 110C193.465 110 193.339 110 193.213 110C193.087 110 192.961 110 192.834 110C192.708 110 192.581 110 192.455 110C192.328 110 192.201 110 192.074 110C191.947 110 191.82 110 191.693 110C191.565 110 191.438 110 191.311 110C191.183 110 191.055 110 190.928 110C190.8 110 190.672 110 190.544 110C190.416 110 190.287 110 190.159 110C190.031 110 189.902 110 189.774 110C189.645 110 189.516 110 189.387 110C189.258 110 189.129 110 189 110V113Z" fill="#113366"/>
<circle cx="189" cy="111.5" r="4.5" fill="white" stroke="#113366" stroke-width="3"/>
</svg>
